HIERARCHY
ROOT Hips
{
	OFFSET	0.00	0.00	0.00
	CHANNELS 6 Xposition Yposition Zposition Zrotation Xrotation Yrotation
	JOINT Chest
	{
		OFFSET	0.000000	6.275751	0.000000
		CHANNELS 3 Zrotation Xrotation Yrotation
		JOINT Neck
		{
			OFFSET	0.000000	14.296947	0.000000
			CHANNELS 3 Zrotation Xrotation Yrotation
			JOINT Head
			{
				OFFSET	0.000000	2.637461	0.000000
				CHANNELS 3 Zrotation Xrotation Yrotation
				End Site
				{
					OFFSET	0.000000	4.499004	0.000000
				}
			}
		}
		JOINT LeftCollar
		{
			OFFSET	1.120000	11.362855	1.870000
			CHANNELS 3 Zrotation Xrotation Yrotation
			JOINT LeftUpArm
			{
				OFFSET	4.565688	2.019026	-1.821179
				CHANNELS 3 Zrotation Xrotation Yrotation
				JOINT LeftLowArm
				{
					OFFSET	0.219729	-10.348825	-0.061708
					CHANNELS 3 Zrotation Xrotation Yrotation
					JOINT LeftHand
					{
						OFFSET	0.087892	-10.352228	2.178217
						CHANNELS 3 Zrotation Xrotation Yrotation
						End Site
						{
							OFFSET	0.131837	-6.692379	1.711456
						}
					}
				}
			}
		}
		JOINT RightCollar
		{
			OFFSET	-1.120000	11.362855	1.870000
			CHANNELS 3 Zrotation Xrotation Yrotation
			JOINT RightUpArm
			{
				OFFSET	-4.708080	2.034554	-1.821179
				CHANNELS 3 Zrotation Xrotation Yrotation
				JOINT RightLowArm
				{
					OFFSET	-0.263676	-10.428555	-0.061708
					CHANNELS 3 Zrotation Xrotation Yrotation
					JOINT RightHand
					{
						OFFSET	0.000000	-10.255345	2.178217
						CHANNELS 3 Zrotation Xrotation Yrotation
						End Site
						{
							OFFSET	-0.140882	-6.671274	1.711456
						}
					}
				}
			}
		}
	}
	JOINT LeftUpLeg
	{
		OFFSET	3.910000	0.000000	0.000000
		CHANNELS 3 Zrotation Xrotation Yrotation
		JOINT LeftLowLeg
		{
			OFFSET	-0.441177	-17.569450	1.695613
			CHANNELS 3 Zrotation Xrotation Yrotation
			JOINT LeftFoot
			{
				OFFSET	-0.043946	-17.197315	-1.478076
				CHANNELS 3 Zrotation Xrotation Yrotation
				End Site
				{
					OFFSET	0.000000	-3.933155	5.233925
				}
			}
		}
	}
	JOINT RightUpLeg
	{
		OFFSET	-3.910000	0.000000	0.000000
		CHANNELS 3 Zrotation Xrotation Yrotation
		JOINT RightLowLeg
		{
			OFFSET	0.437741	-17.622387	1.695613
			CHANNELS 3 Zrotation Xrotation Yrotation
			JOINT RightFoot
			{
				OFFSET	0.000000	-17.140001	-1.478076
				CHANNELS 3 Zrotation Xrotation Yrotation
				End Site
				{
					OFFSET	0.000000	-4.038528	5.233925
				}
			}
		}
	}
}
MOTION
Frames: 8
Frame Time: 0.04166667
-5.296479	5.805353	0.013298	-40.364658	-5.447848	92.839821	10.912794	14.960529	-6.757622	0.580314	-3.621458	-7.619067	0.612863	-34.211689	0.493130	-17.174915	22.753126	8.903098	71.335365	-39.353004	50.918182	33.087074	-71.015862	-25.003630	26.696394	3.761776	5.479012	18.418133	26.764137	-12.654717	-54.715992	-44.590546	-47.422070	-39.476189	-75.643898	7.304239	-31.908871	4.257109	-6.509843	53.041916	-54.754951	71.707184	-4.449069	49.228352	-16.597881	-14.253616	14.110837	4.750536	4.467468	-28.983772	-41.710812	1.677714	-9.196407	2.793420	-1.010851	6.162134	5.217249	
-5.537289	5.973550	0.179540	-39.614941	-6.864975	96.472649	14.106870	16.985207	-12.019547	-0.555442	-5.763007	-7.114549	2.278469	-35.546749	1.868549	-20.404150	25.407656	12.243662	81.161026	-41.284401	60.871330	35.770176	-72.974915	-19.458248	23.251564	3.452080	4.812748	22.229750	31.858389	-15.437218	-62.790642	-49.256229	-54.392426	-46.765469	-77.991035	-2.082541	-31.422310	4.202116	-6.420443	50.764744	-55.455666	70.511612	-4.038475	53.944656	-12.796742	-9.673470	8.206417	2.170569	4.083408	-28.758938	-43.373096	1.435483	-9.201499	-0.003821	-1.717295	6.876299	5.390647	
-5.669497	6.253862	-0.215638	-41.274384	-5.145442	94.000237	13.954672	16.080801	-12.497939	-1.936718	-6.094931	-3.282912	-0.505927	-36.179428	-0.418347	-20.274498	23.077656	10.467523	75.790245	-35.698631	55.690159	36.857979	-73.512535	-18.003780	22.208006	3.366332	4.607493	19.405834	32.418621	-13.355518	-67.559875	-49.314762	-58.932674	-60.855198	-80.369118	-17.909281	-31.002542	4.155346	-6.342959	42.539890	-53.688370	61.848061	-4.006869	47.956654	-14.239540	-12.817773	16.843847	4.807046	-10.071181	-40.946617	-49.481750	1.628197	16.348019	0.293187	-1.864196	7.357862	5.439480	
-5.461112	6.242500	-0.977636	-43.329815	-0.091646	88.518097	10.501147	12.565483	-8.941089	-3.593943	-4.302293	0.470306	-4.556173	-34.839165	-3.703717	-18.745197	17.930056	6.716077	64.204247	-27.205725	40.986038	33.844269	-72.216141	-20.846657	23.050316	3.435267	4.773277	13.736413	29.585423	-10.502853	-69.218231	-47.796497	-59.256584	-69.288849	-81.173241	-27.152946	-31.324068	4.191139	-6.402335	25.766409	-47.223820	43.932629	-4.008490	30.018644	-19.419172	-22.308889	23.047195	11.037951	-29.750818	-52.245182	-61.031048	2.027608	35.481716	4.019082	-2.606607	18.504618	6.096373	
-5.305504	5.713630	-1.798691	-42.766129	3.150269	80.586571	10.533189	10.401273	-3.191174	-6.501945	-1.763253	4.408406	-8.476018	-33.578396	-6.789937	-19.674017	12.977071	3.521314	53.716282	-17.989677	28.761435	29.891407	-70.156578	-24.221447	23.391859	3.463912	4.840202	8.447307	29.153044	-10.334238	-75.030182	-49.685745	-62.530602	-74.978111	-81.453445	-32.756344	-30.344778	4.083086	-6.220866	15.687813	-35.383411	34.869740	-2.929236	17.180853	-10.678078	-17.455086	1.374773	2.067241	-40.586273	-58.802166	-67.478996	2.442526	48.210556	6.872674	-3.482736	16.390608	6.347363	
-5.193248	5.641766	-2.174730	-41.158642	4.214222	75.179558	8.883738	14.106957	2.448554	-5.253368	-3.146396	6.416341	-12.221508	-34.945683	-10.032424	-22.161835	16.791616	5.202256	50.740005	-21.827093	28.884928	30.864048	-70.541801	-24.049768	24.342913	3.545850	5.025751	11.636064	30.694901	-15.562983	-86.697632	-54.200020	-72.740639	-81.914139	-81.254936	-36.973652	-29.558422	3.998593	-6.073888	13.811668	-30.482786	40.527992	-2.702344	14.213518	-8.267227	-14.256015	-2.573765	0.642882	-40.356819	-61.741230	-64.678352	2.369907	53.917881	5.915548	-4.031413	6.860339	5.918050	
-5.240036	6.075056	-2.007024	-42.612839	2.965685	76.480125	8.303385	15.910017	3.111704	-2.974037	-5.422872	5.183148	-11.751889	-38.156204	-10.049292	-22.782236	19.001362	6.485140	50.288937	-26.497501	32.309669	37.363644	-73.658058	-17.747282	25.881935	3.684903	5.323142	14.139289	29.737291	-16.958920	-84.854401	-53.739201	-71.545975	-85.653168	-81.093529	-39.157707	-30.409361	4.090111	-6.232886	20.309200	-36.472050	43.366768	-3.229684	22.785791	-9.094717	-14.642444	3.934595	2.345277	-34.654900	-60.969772	-59.523159	2.089282	50.348804	3.806854	-5.005106	0.579472	5.596311	
-5.142740	6.335135	-1.369953	-45.207813	-1.584248	80.738564	11.129010	13.855481	0.490867	-1.881113	-5.195026	0.510653	-5.623487	-39.189247	-4.839374	-19.754908	15.909883	4.398557	50.598785	-33.639458	46.129101	92.381783	-80.268326	37.023285	-4.460145	2.499474	-0.946985	11.570549	26.725742	-12.485511	-68.062531	-48.040020	-58.240574	-79.058823	-80.565903	-30.024385	-33.510693	4.443557	-6.800857	37.496433	-46.331142	57.769070	-4.346302	37.595936	-14.277966	-12.467225	19.133957	5.122946	-24.659058	-57.940777	-52.030460	1.831778	38.347992	1.817219	-4.840744	13.319610	6.630969	
